<mxfile host="app.diagrams.net" modified="2024-04-21T13:59:13.081Z" agent="Mozilla/5.0 (Windows NT 10.0; Win64; x64) AppleWebKit/537.36 (KHTML, like Gecko) Chrome/123.0.0.0 Safari/537.36" etag="y91dKPDCkr6fC1SgQBF9" version="24.0.4" type="github">
  <diagram name="Page-1" id="2YBvvXClWsGukQMizWep">
    <mxGraphModel dx="2368" dy="624" grid="1" gridSize="10" guides="1" tooltips="1" connect="1" arrows="1" fold="1" page="1" pageScale="1" pageWidth="850" pageHeight="1100" math="0" shadow="0">
      <root>
        <mxCell id="0" />
        <mxCell id="1" parent="0" />
        <mxCell id="aM9ryv3xv72pqoxQDRHE-1" value="Client" style="shape=umlLifeline;perimeter=lifelinePerimeter;whiteSpace=wrap;html=1;container=0;dropTarget=0;collapsible=0;recursiveResize=0;outlineConnect=0;portConstraint=eastwest;newEdgeStyle={&quot;edgeStyle&quot;:&quot;elbowEdgeStyle&quot;,&quot;elbow&quot;:&quot;vertical&quot;,&quot;curved&quot;:0,&quot;rounded&quot;:0};" parent="1" vertex="1">
          <mxGeometry x="40" y="10" width="100" height="1010" as="geometry" />
        </mxCell>
        <mxCell id="aM9ryv3xv72pqoxQDRHE-2" value="" style="html=1;points=[];perimeter=orthogonalPerimeter;outlineConnect=0;targetShapes=umlLifeline;portConstraint=eastwest;newEdgeStyle={&quot;edgeStyle&quot;:&quot;elbowEdgeStyle&quot;,&quot;elbow&quot;:&quot;vertical&quot;,&quot;curved&quot;:0,&quot;rounded&quot;:0};" parent="aM9ryv3xv72pqoxQDRHE-1" vertex="1">
          <mxGeometry x="45" y="97" width="10" height="60" as="geometry" />
        </mxCell>
        <mxCell id="TzS1LCkyJQZkEgtBNQex-35" value="" style="html=1;points=[[0,0,0,0,5],[0,1,0,0,-5],[1,0,0,0,5],[1,1,0,0,-5]];perimeter=orthogonalPerimeter;outlineConnect=0;targetShapes=umlLifeline;portConstraint=eastwest;newEdgeStyle={&quot;curved&quot;:0,&quot;rounded&quot;:0};" vertex="1" parent="aM9ryv3xv72pqoxQDRHE-1">
          <mxGeometry x="45" y="550" width="10" height="80" as="geometry" />
        </mxCell>
        <mxCell id="aM9ryv3xv72pqoxQDRHE-5" value="Server" style="shape=umlLifeline;perimeter=lifelinePerimeter;whiteSpace=wrap;html=1;container=0;dropTarget=0;collapsible=0;recursiveResize=0;outlineConnect=0;portConstraint=eastwest;newEdgeStyle={&quot;edgeStyle&quot;:&quot;elbowEdgeStyle&quot;,&quot;elbow&quot;:&quot;vertical&quot;,&quot;curved&quot;:0,&quot;rounded&quot;:0};" parent="1" vertex="1">
          <mxGeometry x="220" y="10" width="100" height="1000" as="geometry" />
        </mxCell>
        <mxCell id="aM9ryv3xv72pqoxQDRHE-6" value="" style="html=1;points=[];perimeter=orthogonalPerimeter;outlineConnect=0;targetShapes=umlLifeline;portConstraint=eastwest;newEdgeStyle={&quot;edgeStyle&quot;:&quot;elbowEdgeStyle&quot;,&quot;elbow&quot;:&quot;vertical&quot;,&quot;curved&quot;:0,&quot;rounded&quot;:0};" parent="aM9ryv3xv72pqoxQDRHE-5" vertex="1">
          <mxGeometry x="45" y="100" width="10" height="70" as="geometry" />
        </mxCell>
        <mxCell id="TzS1LCkyJQZkEgtBNQex-30" value="" style="html=1;points=[[0,0,0,0,5],[0,1,0,0,-5],[1,0,0,0,5],[1,1,0,0,-5]];perimeter=orthogonalPerimeter;outlineConnect=0;targetShapes=umlLifeline;portConstraint=eastwest;newEdgeStyle={&quot;curved&quot;:0,&quot;rounded&quot;:0};" vertex="1" parent="aM9ryv3xv72pqoxQDRHE-5">
          <mxGeometry x="45" y="550" width="10" height="80" as="geometry" />
        </mxCell>
        <mxCell id="TzS1LCkyJQZkEgtBNQex-49" value="" style="html=1;points=[[0,0,0,0,5],[0,1,0,0,-5],[1,0,0,0,5],[1,1,0,0,-5]];perimeter=orthogonalPerimeter;outlineConnect=0;targetShapes=umlLifeline;portConstraint=eastwest;newEdgeStyle={&quot;curved&quot;:0,&quot;rounded&quot;:0};" vertex="1" parent="aM9ryv3xv72pqoxQDRHE-5">
          <mxGeometry x="45" y="380" width="10" height="20" as="geometry" />
        </mxCell>
        <mxCell id="aM9ryv3xv72pqoxQDRHE-7" value="PLAYERNAME" style="html=1;verticalAlign=bottom;endArrow=block;edgeStyle=elbowEdgeStyle;elbow=vertical;curved=0;rounded=0;" parent="1" source="aM9ryv3xv72pqoxQDRHE-2" target="aM9ryv3xv72pqoxQDRHE-6" edge="1">
          <mxGeometry relative="1" as="geometry">
            <mxPoint x="195" y="130" as="sourcePoint" />
            <Array as="points">
              <mxPoint x="180" y="120" />
            </Array>
          </mxGeometry>
        </mxCell>
        <mxCell id="aM9ryv3xv72pqoxQDRHE-8" value="NAME CONFIRMATION&amp;nbsp;" style="html=1;verticalAlign=bottom;endArrow=open;dashed=1;endSize=8;edgeStyle=elbowEdgeStyle;elbow=vertical;curved=0;rounded=0;" parent="1" source="aM9ryv3xv72pqoxQDRHE-6" edge="1">
          <mxGeometry relative="1" as="geometry">
            <mxPoint x="100" y="160" as="targetPoint" />
            <Array as="points">
              <mxPoint x="180" y="160" />
            </Array>
          </mxGeometry>
        </mxCell>
        <mxCell id="TzS1LCkyJQZkEgtBNQex-1" value="while confrimation is false" style="shape=umlFrame;whiteSpace=wrap;html=1;pointerEvents=0;width=110;height=40;" vertex="1" parent="1">
          <mxGeometry x="-40" y="70" width="330" height="150" as="geometry" />
        </mxCell>
        <mxCell id="TzS1LCkyJQZkEgtBNQex-18" value="" style="html=1;points=[];perimeter=orthogonalPerimeter;outlineConnect=0;targetShapes=umlLifeline;portConstraint=eastwest;newEdgeStyle={&quot;edgeStyle&quot;:&quot;elbowEdgeStyle&quot;,&quot;elbow&quot;:&quot;vertical&quot;,&quot;curved&quot;:0,&quot;rounded&quot;:0};" vertex="1" parent="1">
          <mxGeometry x="85" y="250" width="10" height="60" as="geometry" />
        </mxCell>
        <mxCell id="TzS1LCkyJQZkEgtBNQex-19" value="" style="html=1;points=[];perimeter=orthogonalPerimeter;outlineConnect=0;targetShapes=umlLifeline;portConstraint=eastwest;newEdgeStyle={&quot;edgeStyle&quot;:&quot;elbowEdgeStyle&quot;,&quot;elbow&quot;:&quot;vertical&quot;,&quot;curved&quot;:0,&quot;rounded&quot;:0};" vertex="1" parent="1">
          <mxGeometry x="265" y="260" width="10" height="60" as="geometry" />
        </mxCell>
        <mxCell id="TzS1LCkyJQZkEgtBNQex-20" value="PLAYERCOLOR" style="html=1;verticalAlign=bottom;endArrow=block;edgeStyle=elbowEdgeStyle;elbow=horizontal;curved=0;rounded=0;" edge="1" parent="1" source="TzS1LCkyJQZkEgtBNQex-18" target="TzS1LCkyJQZkEgtBNQex-19">
          <mxGeometry relative="1" as="geometry">
            <mxPoint x="195" y="270" as="sourcePoint" />
            <Array as="points">
              <mxPoint x="180" y="260" />
            </Array>
          </mxGeometry>
        </mxCell>
        <mxCell id="TzS1LCkyJQZkEgtBNQex-21" value="COLOR CONFIRMATION" style="html=1;verticalAlign=bottom;endArrow=open;dashed=1;endSize=8;edgeStyle=elbowEdgeStyle;elbow=vertical;curved=0;rounded=0;" edge="1" parent="1" source="TzS1LCkyJQZkEgtBNQex-19" target="TzS1LCkyJQZkEgtBNQex-18">
          <mxGeometry relative="1" as="geometry">
            <mxPoint x="195" y="345" as="targetPoint" />
            <Array as="points">
              <mxPoint x="180" y="300" />
            </Array>
          </mxGeometry>
        </mxCell>
        <mxCell id="TzS1LCkyJQZkEgtBNQex-22" value="while confrimation is false" style="shape=umlFrame;whiteSpace=wrap;html=1;pointerEvents=0;width=110;height=40;" vertex="1" parent="1">
          <mxGeometry x="-40" y="230" width="330" height="130" as="geometry" />
        </mxCell>
        <mxCell id="TzS1LCkyJQZkEgtBNQex-27" value="READYSTATUS" style="html=1;verticalAlign=bottom;endArrow=block;curved=0;rounded=0;" edge="1" parent="1">
          <mxGeometry width="80" relative="1" as="geometry">
            <mxPoint x="90.5" y="390" as="sourcePoint" />
            <mxPoint x="270" y="390" as="targetPoint" />
          </mxGeometry>
        </mxCell>
        <mxCell id="TzS1LCkyJQZkEgtBNQex-28" value="PLAYERSORDER" style="html=1;verticalAlign=bottom;endArrow=block;curved=0;rounded=0;" edge="1" parent="1" target="aM9ryv3xv72pqoxQDRHE-1">
          <mxGeometry width="80" relative="1" as="geometry">
            <mxPoint x="270" y="450" as="sourcePoint" />
            <mxPoint x="95" y="450" as="targetPoint" />
          </mxGeometry>
        </mxCell>
        <mxCell id="TzS1LCkyJQZkEgtBNQex-29" value="BOARDINIT" style="html=1;verticalAlign=bottom;endArrow=block;curved=0;rounded=0;" edge="1" parent="1" source="aM9ryv3xv72pqoxQDRHE-5">
          <mxGeometry width="80" relative="1" as="geometry">
            <mxPoint x="95" y="510.31999999999994" as="sourcePoint" />
            <mxPoint x="90" y="510" as="targetPoint" />
            <Array as="points">
              <mxPoint x="225" y="510" />
            </Array>
          </mxGeometry>
        </mxCell>
        <mxCell id="TzS1LCkyJQZkEgtBNQex-31" value="STARTINGCARDS" style="html=1;verticalAlign=bottom;endArrow=block;curved=0;rounded=0;" edge="1" parent="1">
          <mxGeometry width="80" relative="1" as="geometry">
            <mxPoint x="265" y="570" as="sourcePoint" />
            <mxPoint x="100" y="570" as="targetPoint" />
          </mxGeometry>
        </mxCell>
        <mxCell id="TzS1LCkyJQZkEgtBNQex-33" value="SELECTED CARD" style="html=1;verticalAlign=bottom;endArrow=open;dashed=1;endSize=8;curved=0;rounded=0;" edge="1" parent="1">
          <mxGeometry relative="1" as="geometry">
            <mxPoint x="100" y="620" as="sourcePoint" />
            <mxPoint x="265" y="620.0000000000001" as="targetPoint" />
          </mxGeometry>
        </mxCell>
        <mxCell id="TzS1LCkyJQZkEgtBNQex-42" value="OtherClients" style="shape=umlLifeline;perimeter=lifelinePerimeter;whiteSpace=wrap;html=1;container=0;dropTarget=0;collapsible=0;recursiveResize=0;outlineConnect=0;portConstraint=eastwest;newEdgeStyle={&quot;edgeStyle&quot;:&quot;elbowEdgeStyle&quot;,&quot;elbow&quot;:&quot;vertical&quot;,&quot;curved&quot;:0,&quot;rounded&quot;:0};" vertex="1" parent="1">
          <mxGeometry x="390" y="20" width="100" height="990" as="geometry" />
        </mxCell>
        <mxCell id="TzS1LCkyJQZkEgtBNQex-43" value="" style="html=1;points=[];perimeter=orthogonalPerimeter;outlineConnect=0;targetShapes=umlLifeline;portConstraint=eastwest;newEdgeStyle={&quot;edgeStyle&quot;:&quot;elbowEdgeStyle&quot;,&quot;elbow&quot;:&quot;vertical&quot;,&quot;curved&quot;:0,&quot;rounded&quot;:0};" vertex="1" parent="TzS1LCkyJQZkEgtBNQex-42">
          <mxGeometry x="45" y="150" width="10" height="17" as="geometry" />
        </mxCell>
        <mxCell id="TzS1LCkyJQZkEgtBNQex-44" value="" style="html=1;points=[[0,0,0,0,5],[0,1,0,0,-5],[1,0,0,0,5],[1,1,0,0,-5]];perimeter=orthogonalPerimeter;outlineConnect=0;targetShapes=umlLifeline;portConstraint=eastwest;newEdgeStyle={&quot;curved&quot;:0,&quot;rounded&quot;:0};" vertex="1" parent="TzS1LCkyJQZkEgtBNQex-42">
          <mxGeometry x="45" y="610" width="10" height="20" as="geometry" />
        </mxCell>
        <mxCell id="TzS1LCkyJQZkEgtBNQex-47" value="" style="html=1;points=[[0,0,0,0,5],[0,1,0,0,-5],[1,0,0,0,5],[1,1,0,0,-5]];perimeter=orthogonalPerimeter;outlineConnect=0;targetShapes=umlLifeline;portConstraint=eastwest;newEdgeStyle={&quot;curved&quot;:0,&quot;rounded&quot;:0};" vertex="1" parent="TzS1LCkyJQZkEgtBNQex-42">
          <mxGeometry x="45" y="290" width="10" height="20" as="geometry" />
        </mxCell>
        <mxCell id="TzS1LCkyJQZkEgtBNQex-50" value="" style="html=1;points=[[0,0,0,0,5],[0,1,0,0,-5],[1,0,0,0,5],[1,1,0,0,-5]];perimeter=orthogonalPerimeter;outlineConnect=0;targetShapes=umlLifeline;portConstraint=eastwest;newEdgeStyle={&quot;curved&quot;:0,&quot;rounded&quot;:0};" vertex="1" parent="TzS1LCkyJQZkEgtBNQex-42">
          <mxGeometry x="45" y="380" width="10" height="30" as="geometry" />
        </mxCell>
        <mxCell id="TzS1LCkyJQZkEgtBNQex-45" value="NEW PLAYER" style="html=1;verticalAlign=bottom;endArrow=block;curved=0;rounded=0;" edge="1" parent="1">
          <mxGeometry width="80" relative="1" as="geometry">
            <mxPoint x="275" y="170" as="sourcePoint" />
            <mxPoint x="430" y="170" as="targetPoint" />
          </mxGeometry>
        </mxCell>
        <mxCell id="TzS1LCkyJQZkEgtBNQex-46" value="UNAVAIABLECOLOR" style="html=1;verticalAlign=bottom;endArrow=block;curved=0;rounded=0;" edge="1" parent="1">
          <mxGeometry width="80" relative="1" as="geometry">
            <mxPoint x="275" y="310" as="sourcePoint" />
            <mxPoint x="440" y="310" as="targetPoint" />
          </mxGeometry>
        </mxCell>
        <mxCell id="TzS1LCkyJQZkEgtBNQex-48" value="OTHERSREADYSTATUS" style="html=1;verticalAlign=bottom;endArrow=block;curved=0;rounded=0;" edge="1" parent="1">
          <mxGeometry width="80" relative="1" as="geometry">
            <mxPoint x="280" y="404" as="sourcePoint" />
            <mxPoint x="430" y="404" as="targetPoint" />
          </mxGeometry>
        </mxCell>
        <mxCell id="TzS1LCkyJQZkEgtBNQex-51" value="OTHERSSTARTINGCARD" style="html=1;verticalAlign=bottom;endArrow=block;curved=0;rounded=0;" edge="1" parent="1" target="TzS1LCkyJQZkEgtBNQex-42">
          <mxGeometry width="80" relative="1" as="geometry">
            <mxPoint x="275" y="630" as="sourcePoint" />
            <mxPoint x="355" y="630" as="targetPoint" />
          </mxGeometry>
        </mxCell>
        <mxCell id="TzS1LCkyJQZkEgtBNQex-55" value="" style="html=1;points=[[0,0,0,0,5],[0,1,0,0,-5],[1,0,0,0,5],[1,1,0,0,-5]];perimeter=orthogonalPerimeter;outlineConnect=0;targetShapes=umlLifeline;portConstraint=eastwest;newEdgeStyle={&quot;curved&quot;:0,&quot;rounded&quot;:0};" vertex="1" parent="1">
          <mxGeometry x="85" y="816" width="10" height="80" as="geometry" />
        </mxCell>
        <mxCell id="TzS1LCkyJQZkEgtBNQex-56" value="" style="html=1;points=[[0,0,0,0,5],[0,1,0,0,-5],[1,0,0,0,5],[1,1,0,0,-5]];perimeter=orthogonalPerimeter;outlineConnect=0;targetShapes=umlLifeline;portConstraint=eastwest;newEdgeStyle={&quot;curved&quot;:0,&quot;rounded&quot;:0};" vertex="1" parent="1">
          <mxGeometry x="265" y="816" width="10" height="90" as="geometry" />
        </mxCell>
        <mxCell id="TzS1LCkyJQZkEgtBNQex-57" value="OBJECTIVECARD" style="html=1;verticalAlign=bottom;endArrow=block;curved=0;rounded=0;" edge="1" parent="1">
          <mxGeometry width="80" relative="1" as="geometry">
            <mxPoint x="265" y="826" as="sourcePoint" />
            <mxPoint x="100" y="826" as="targetPoint" />
          </mxGeometry>
        </mxCell>
        <mxCell id="TzS1LCkyJQZkEgtBNQex-58" value="SELECTED CARD" style="html=1;verticalAlign=bottom;endArrow=open;dashed=1;endSize=8;curved=0;rounded=0;" edge="1" parent="1">
          <mxGeometry relative="1" as="geometry">
            <mxPoint x="100" y="886" as="sourcePoint" />
            <mxPoint x="265" y="886.0000000000001" as="targetPoint" />
          </mxGeometry>
        </mxCell>
        <mxCell id="TzS1LCkyJQZkEgtBNQex-59" value="" style="html=1;points=[[0,0,0,0,5],[0,1,0,0,-5],[1,0,0,0,5],[1,1,0,0,-5]];perimeter=orthogonalPerimeter;outlineConnect=0;targetShapes=umlLifeline;portConstraint=eastwest;newEdgeStyle={&quot;curved&quot;:0,&quot;rounded&quot;:0};" vertex="1" parent="1">
          <mxGeometry x="435" y="896" width="10" height="20" as="geometry" />
        </mxCell>
        <mxCell id="TzS1LCkyJQZkEgtBNQex-60" value="OTHERSOBJECTIVECARD" style="html=1;verticalAlign=bottom;endArrow=block;curved=0;rounded=0;" edge="1" parent="1">
          <mxGeometry width="80" relative="1" as="geometry">
            <mxPoint x="275" y="896" as="sourcePoint" />
            <mxPoint x="440" y="896" as="targetPoint" />
          </mxGeometry>
        </mxCell>
        <mxCell id="TzS1LCkyJQZkEgtBNQex-61" value="DRAWCARDRESOURCE" style="html=1;verticalAlign=bottom;endArrow=block;curved=0;rounded=0;" edge="1" parent="1" source="aM9ryv3xv72pqoxQDRHE-5">
          <mxGeometry width="80" relative="1" as="geometry">
            <mxPoint x="260" y="680" as="sourcePoint" />
            <mxPoint x="94.94736842105249" y="680.0000000000001" as="targetPoint" />
          </mxGeometry>
        </mxCell>
        <mxCell id="TzS1LCkyJQZkEgtBNQex-62" value="DRAWCARDRESOURCE" style="html=1;verticalAlign=bottom;endArrow=block;curved=0;rounded=0;" edge="1" parent="1" source="aM9ryv3xv72pqoxQDRHE-5">
          <mxGeometry width="80" relative="1" as="geometry">
            <mxPoint x="260" y="710" as="sourcePoint" />
            <mxPoint x="94.94736842105249" y="710.0000000000001" as="targetPoint" />
          </mxGeometry>
        </mxCell>
        <mxCell id="TzS1LCkyJQZkEgtBNQex-63" value="DRAWGOLDCARD" style="html=1;verticalAlign=bottom;endArrow=block;curved=0;rounded=0;" edge="1" parent="1" source="aM9ryv3xv72pqoxQDRHE-5">
          <mxGeometry width="80" relative="1" as="geometry">
            <mxPoint x="260" y="750" as="sourcePoint" />
            <mxPoint x="94.94736842105249" y="750.0000000000001" as="targetPoint" />
          </mxGeometry>
        </mxCell>
        <mxCell id="TzS1LCkyJQZkEgtBNQex-64" value="NEXTTURN" style="html=1;verticalAlign=bottom;endArrow=block;curved=0;rounded=0;" edge="1" parent="1">
          <mxGeometry width="80" relative="1" as="geometry">
            <mxPoint x="265.05" y="960" as="sourcePoint" />
            <mxPoint x="100" y="960" as="targetPoint" />
          </mxGeometry>
        </mxCell>
      </root>
    </mxGraphModel>
  </diagram>
</mxfile>
